<svg width="19.999939" height="20.000000" viewBox="0 0 19.9999 20" fill="none" xmlns="http://www.w3.org/2000/svg" xmlns:xlink="http://www.w3.org/1999/xlink">
	<defs/>
	<path id="Vector (Stroke)" d="M8.48 1.81C4.8 1.81 1.81 4.8 1.81 8.48C1.81 12.16 4.8 15.15 8.48 15.15C10.29 15.15 11.93 14.43 13.13 13.26C13.15 13.23 13.17 13.21 13.19 13.19C13.21 13.17 13.23 13.15 13.26 13.13C14.43 11.93 15.15 10.29 15.15 8.48C15.15 4.8 12.16 1.81 8.48 1.81ZM15.09 13.8C16.26 12.35 16.96 10.5 16.96 8.48C16.96 3.79 13.17 0 8.48 0C3.79 0 0 3.79 0 8.48C0 13.17 3.79 16.96 8.48 16.96C10.5 16.96 12.35 16.26 13.8 15.09L18.44 19.73C18.8 20.08 19.37 20.08 19.73 19.73C20.08 19.37 20.08 18.8 19.73 18.44L15.09 13.8Z" fill="#DCDCDC" fill-opacity="1.000000" fill-rule="evenodd"/>
</svg>
